<svg width="800" height="600" xmlns="http://www.w3.org/2000/svg">

 <g>
  <title>Layer 1</title>
  <path stroke="#000" id="svg_31" d="m85,276l81,0l0,228l-81,0l0,-228z" opacity="undefined" fill="none"/>
  <path stroke="#000" id="svg_32" d="m269,205l91,0l0,198l-91,0l0,-198z" opacity="undefined" fill="none"/>
  <rect id="svg_33" height="195" width="85" y="207" x="448" stroke="#000" fill="none"/>
  <path id="svg_34" d="m640,260l85,0l0,245l-85,0l0,-245z" opacity="undefined" stroke="#000" fill="none"/>
  <path id="svg_36" d="m77.37457,112.04659l186.70117,0l0,70l-186.70117,0l0,-70z" transform="rotate(-30.6205 170.725 147.047)" opacity="undefined" stroke="#000" fill="none"/>
  <rect transform="rotate(28.3639 656.52 136.741)" stroke="#000" id="svg_37" height="63.77017" width="182" y="104.85588" x="565.5202" fill="none"/>
  <rect id="svg_38" height="48" width="219" y="75" x="300" stroke="#000" fill="none"/>
  <path id="svg_39" d="m282,18l258,0l0,23l-258,0l0,-23z" opacity="undefined" stroke="#000" fill="none"/>
  <rect stroke="#000" id="svg_40" height="57" width="280.99999" y="462" x="256.00001" fill="none"/>
  <line id="svg_42" y2="385" x2="167" y1="385" x1="86" stroke="#000" fill="none"/>
  <line stroke="#000" id="svg_43" y2="308" x2="359" y1="308" x1="269" fill="none"/>
  <line id="svg_44" y2="301" x2="533" y1="301" x1="448" stroke="#000" fill="none"/>
  <line id="svg_45" y2="385" x2="725" y1="385" x1="640" stroke="#000" fill="none"/>
  <line id="svg_46" y2="164" x2="639" y1="108" x1="669" stroke="#000" fill="none"/>
  <path id="svg_47" d="m149,116l39,63" opacity="undefined" stroke="#000" fill="none"/>
  <text xml:space="preserve" text-anchor="start" font-family="Noto Sans JP" font-size="24" stroke-width="0" id="svg_48" y="102" x="373" stroke="#000" fill="#000000">教卓</text>
  <text xml:space="preserve" text-anchor="start" font-family="Noto Sans JP" font-size="12" id="svg_52" y="28" x="401" stroke="#000" fill="none">黒板</text>
  <line stroke="#000" id="svg_53" y2="60" x2="14" y1="60" x1="-1" fill="none"/>
  <line stroke="#000" id="svg_54" y2="99" x2="17" y1="99" x1="-4" fill="none"/>
  <line id="svg_55" y2="489" x2="10" y1="489" x1="1" stroke="#000" fill="none"/>
  <line id="svg_56" y2="523" x2="11" y1="524" x1="1" stroke="#000" fill="none"/>
  <text xml:space="preserve" text-anchor="start" font-family="Noto Sans JP" font-size="18" id="svg_63" y="171" x="121" stroke="#000" fill="none">①</text>
  <text xml:space="preserve" text-anchor="start" font-family="Noto Sans JP" font-size="18" id="svg_64" y="124" x="211" stroke="#000" fill="none">②</text>
  <text xml:space="preserve" text-anchor="start" font-family="Noto Sans JP" font-size="18" id="svg_66" y="261" x="307" stroke="#000" fill="none">③</text>
  <text xml:space="preserve" text-anchor="start" font-family="Noto Sans JP" font-size="18" id="svg_67" y="257" x="481" stroke="#000" fill="none">④</text>
  <text xml:space="preserve" text-anchor="start" font-family="Noto Sans JP" font-size="18" id="svg_68" y="116" x="598" stroke="#000" fill="none">⑤</text>
  <text xml:space="preserve" text-anchor="start" font-family="Noto Sans JP" font-size="18" id="svg_69" y="148" x="684" stroke="#000" fill="none">⑥</text>
  <text xml:space="preserve" text-anchor="start" font-family="Noto Sans JP" font-size="18" id="svg_70" y="327" x="668" stroke="#000" fill="none">⑦</text>
  <text xml:space="preserve" text-anchor="start" font-family="Noto Sans JP" font-size="18" id="svg_72" y="446" x="672" stroke="#000" fill="none">⑧</text>
  <text xml:space="preserve" text-anchor="start" font-family="Noto Sans JP" font-size="18" id="svg_73" y="357" x="481" stroke="#000" fill="none">⑨</text>
  <text xml:space="preserve" text-anchor="start" font-family="Noto Sans JP" font-size="18" id="svg_74" y="357" x="307" stroke="#000" fill="none">⑩</text>
  <text xml:space="preserve" text-anchor="start" font-family="Noto Sans JP" font-size="18" id="svg_75" y="335" x="118" stroke="#000" fill="none">⑪</text>
  <text xml:space="preserve" text-anchor="start" font-family="Noto Sans JP" font-size="18" id="svg_76" y="446" x="113" stroke="#000" fill="none">⑫</text>
 </g>
</svg>